Coordinates
version=1
nRows=14
nColumns=36
inDegrees=yes

Units are S.I. units (second, meters, Newtons, ...)
If the header above contains a line with 'inDegrees', this indicates whether rotational values are in degrees (yes) or radians (no).

endheader
time	pelvis_tilt	pelvis_list	pelvis_rotation	pelvis_tx	pelvis_ty	pelvis_tz	hip_flexion_r	hip_adduction_r	hip_rotation_r	knee_angle_r	knee_angle_r_beta	ankle_angle_r	subtalar_angle_r	mtp_angle_r	hip_flexion_l	hip_adduction_l	hip_rotation_l	knee_angle_l	knee_angle_l_beta	ankle_angle_l	subtalar_angle_l	mtp_angle_l	lumbar_extension	lumbar_bending	lumbar_rotation	arm_flex_r	arm_add_r	arm_rot_r	elbow_flex_r	pro_sup_r	arm_flex_l	arm_add_l	arm_rot_l	elbow_flex_l	pro_sup_l
      2.50000000	      7.73045423	     -1.00960679	     -1.18077699	      0.60225080	      0.97678745	     -0.01537827	      7.81193934	      5.52321616	      2.81595893	     39.22406982	      0.68458916	     18.57161258	    -23.80040660	     -7.49999987	     22.56459484	     -3.83143914	      2.80529869	     65.90407698	      1.15024313	     12.43627632	     -4.56888081	     -7.49999987	      1.04774031	      1.36963753	      2.76826383	     21.11892034	     -6.51976823	     28.18744917	    124.29650996	     82.62230447	    -24.65398316	    -12.88409919	     14.09431800	    112.70977109	     78.56334858
      2.51666670	      7.91544916	     -0.84868933	     -1.00363953	      0.60390510	      0.97722385	     -0.01546662	      7.49162534	      5.38587412	      2.77596035	     39.17026902	      0.68365016	     18.01221097	    -24.14988122	     -7.49999987	     22.02546290	     -3.37469303	      3.00621940	     65.35937077	      1.14073622	     12.89582191	     -5.22419355	     -7.49999987	      1.12233623	      1.09937686	      3.14366808	     22.33557935	     -7.08710459	     28.41085086	    125.08198895	     82.41153076	    -25.56253340	    -13.72766142	     13.68261967	    111.74896891	     77.94166353
      2.53333330	      7.95542948	     -0.63562735	     -0.99979832	      0.60369028	      0.98037004	     -0.01620193	      7.05796000	      5.15376015	      2.71497313	     38.59392869	      0.67359113	     17.73308674	    -24.16678213	     -7.49999987	     21.18743747	     -2.76782163	      3.06670240	     63.95935126	      1.11630127	     13.35989907	     -5.94487862	     -7.49999987	      1.27143118	      0.79887089	      3.19960533	     23.06209995	     -7.52577411	     28.76013524	    125.72891883	     82.42900207	    -26.11515057	    -14.48707219	     13.12046241	    111.18591827	     77.50835574
      2.55000000	      8.12070828	     -0.47996741	     -1.06344953	      0.60588218	      0.98717176	     -0.01802334	      6.02445877	      4.81901190	      2.77805116	     37.03583432	      0.64639725	     16.84961318	    -24.12426085	     -7.49999987	     19.70715568	     -2.22317332	      3.02784231	     61.65127523	      1.07601774	     13.17724591	     -6.86638258	     -7.49999987	      1.38852035	      0.75836419	      2.96315835	     23.21057048	     -8.00709143	     29.26481812	    125.95152332	     82.80787441	    -26.10032245	    -15.05740979	     12.91610880	    110.14723705	     77.11772327
      2.56666670	      7.98000014	     -0.40140818	     -1.11185995	      0.60782173	      0.98843833	     -0.01859795	      5.35947340	      4.67715894	      2.85087503	     35.58460537	      0.62106853	     15.77797469	    -24.20234557	     -7.49999987	     18.32241512	     -1.83880343	      2.92589542	     59.12060494	      1.03184921	     12.58798453	     -7.32849569	     -7.49999987	      1.76167204	      0.74065270	      2.69154506	     22.80959558	     -8.46542723	     29.57231844	    126.16586747	     82.99938454	    -25.91362444	    -15.55290729	     13.14719804	    109.34374273	     76.39389393
      2.58333330	      7.87170764	     -0.40344194	     -1.29316596	      0.61084739	      0.99117000	     -0.01971550	      4.67708977	      4.49542912	      2.93943052	     34.07890115	      0.59478903	     15.28787430	    -23.90487787	     -7.49999987	     16.80784511	     -1.56079053	      2.88403409	     56.45835541	      0.98538419	     12.43374258	     -7.66195792	     -7.49999987	      2.16936888	      0.77586834	      2.43650350	     21.82178991	     -9.00134899	     29.78084838	    126.27202551	     83.11104682	    -25.95435451	    -15.60007464	     12.87424417	    109.08969416	     76.01616019
      2.60000000	      7.68189055	     -0.35189416	     -1.43187228	      0.61290469	      0.99713163	     -0.02303799	      3.83334754	      4.22341038	      2.92437740	     32.07906432	      0.55988529	     14.02777355	    -23.70523234	     -7.49999987	     15.19970649	     -1.17871464	      2.85580752	     53.14105775	      0.92748643	     11.20630167	     -8.18415574	     -7.49999987	      2.69297990	      0.82657182	      2.25916535	     20.08675412	     -9.51814396	     29.84038635	    126.15662694	     83.10338608	    -25.68647693	    -15.61722462	     13.12735711	    108.71028476	     75.10627052
      2.61666670	      7.46173437	     -0.57527956	     -1.68314103	      0.61505230	      0.99529072	     -0.02610460	      3.44276193	      4.20016547	      2.93589003	     30.81217503	      0.53777390	     13.48531349	    -23.45492905	     -7.49999987	     13.69924090	     -1.01196590	      2.70009254	     50.24365142	      0.87691715	     10.59575648	     -8.06342793	     -7.49999987	      3.07450456	      1.17840115	      1.76516415	     18.30512949	    -10.13132630	     29.90220817	    126.09409230	     82.81234757	    -25.19556703	    -15.39509742	     13.50268131	    108.86677030	     74.39487431
      2.63333330	      7.13180307	     -0.80435477	     -1.79295743	      0.61760543	      0.99288331	     -0.02821026	      3.50109217	      4.24855100	      2.89200265	     30.26750243	      0.52826757	     13.26953921	    -23.69406213	     -7.49999987	     12.53524852	     -0.87267070	      2.39297775	     47.66904736	      0.83198183	     10.61250650	     -8.03303967	     -7.49999987	      3.56867358	      1.50924079	      1.37072140	     15.88871469	    -10.91175502	     29.61852052	    126.00156121	     82.28513526	    -25.25266135	    -14.69367694	     13.34393642	    109.75425455	     73.80880577
      2.65000000	      6.65101511	     -1.10162931	     -2.11645399	      0.61903666	      0.99595299	     -0.02970693	      3.70235529	      4.51378011	      3.30641155	     29.69277402	      0.51823667	     12.56648349	    -24.65819446	     -7.49999987	     11.17661608	     -0.81899792	      2.20513284	     44.72431787	      0.78058660	     10.95188928	     -7.54476155	     -7.49999987	      4.16889501	      1.83306757	      1.01850648	     13.04345986	    -11.65196186	     29.18619833	    125.67877095	     82.95117350	    -25.52503360	    -13.56996336	     12.86036508	    111.01483261	     74.04537882
      2.66666670	      6.13443468	     -1.64636854	     -2.42194829	      0.61928089	      0.99455301	     -0.03142794	      4.24310006	      5.06605635	      3.59131889	     29.67677782	      0.51795748	     12.73214221	    -24.82946871	     -7.49999987	      9.90168491	     -1.02869911	      2.28773987	     41.76550532	      0.72894558	     11.90381030	     -7.74667006	     -7.49999987	      4.63626696	      2.48683449	      0.17862657	     10.43170906	    -12.53095807	     29.41022366	    124.82175438	     82.94011408	    -25.08743762	    -12.71002657	     12.69187942	    112.21977088	     74.04542711
      2.68333330	      5.87042362	     -2.07812721	     -2.92581171	      0.61768343	      0.99594656	     -0.03420550	      4.71868943	      5.45733026	      4.26647142	     29.85395248	      0.52104977	     12.01182134	    -25.91361699	     -7.49999987	      8.63644335	     -1.14125251	      2.23443871	     39.04823431	      0.68152026	     12.22594860	     -8.20204880	     -7.49999987	      4.49135104	      2.95464513	     -0.57277161	      7.48829577	    -13.17492813	     28.62961605	    123.43589753	     82.85125207	    -23.54309188	    -11.96092020	     12.36852959	    113.35266726	     74.04697531
      2.70000000	      5.54104940	     -2.44897220	     -3.31975162	      0.61762586	      0.99035936	     -0.03897383	      5.75640788	      5.76304578	      4.72327567	     31.04244963	      0.54179295	     11.75398201	    -26.89809051	     -7.49999987	      7.62158658	     -1.14124577	      2.12191186	     36.96033110	      0.64507947	     13.45334835	     -8.53091222	     -7.49999987	      4.46491728	      3.49687940	     -0.33850916	      3.58816263	    -14.02668378	     26.46996104	    122.27662649	     82.65653919	    -18.74254750	    -13.04036317	     15.22398669	    113.44816654	     73.76343181
      2.71666670	      5.33205703	     -2.65156647	     -3.68064469	      0.61755918	      0.98582683	     -0.04141517	      7.12766311	      5.91208919	      5.14532561	     33.15883803	      0.57873090	     12.05901448	    -27.68816539	     -7.49999987	      6.92928469	     -1.18427099	      1.52010020	     35.81759679	      0.62513499	     15.31528895	     -8.51141571	     -7.49999987	      4.40718059	      3.78291765	     -0.70315487	      0.35111384	    -14.62312976	     24.73094262	    120.31279206	     82.17923313	    -14.56431704	    -13.69329054	     16.85568972	    114.08702717	     73.35447266
